<?xml version="1.0" encoding="UTF-8"?>
<!DOCTYPE svg PUBLIC "-//W3C//DTD SVG 1.1//EN" "http://www.w3.org/Graphics/SVG/1.1/DTD/svg11.dtd">
<svg xmlns="http://www.w3.org/2000/svg" version="1.1" width="191px" height="243px" style="shape-rendering:geometricPrecision; text-rendering:geometricPrecision; image-rendering:optimizeQuality; fill-rule:evenodd; clip-rule:evenodd" xmlns:xlink="http://www.w3.org/1999/xlink">
<g><path style="opacity:1" fill="#fdfefd" d="M -0.5,-0.5 C 63.1667,-0.5 126.833,-0.5 190.5,-0.5C 190.5,80.5 190.5,161.5 190.5,242.5C 126.833,242.5 63.1667,242.5 -0.5,242.5C -0.5,161.5 -0.5,80.5 -0.5,-0.5 Z"/></g>
<g><path style="opacity:1" fill="#6b3635" d="M 12.5,8.5 C 33.8333,8.5 55.1667,8.5 76.5,8.5C 76.5,8.83333 76.5,9.16667 76.5,9.5C 55.5,9.5 34.5,9.5 13.5,9.5C 13.5,28.5 13.5,47.5 13.5,66.5C 13.1667,66.5 12.8333,66.5 12.5,66.5C 12.5,47.1667 12.5,27.8333 12.5,8.5 Z"/></g>
<g><path style="opacity:1" fill="#f2fae6" d="M 129.5,16.5 C 126.888,15.6295 124.221,14.9628 121.5,14.5C 115.895,11.7595 109.895,9.92617 103.5,9C 94.8397,8.50025 86.1731,8.33358 77.5,8.5C 77.1667,8.5 76.8333,8.5 76.5,8.5C 76.6107,7.88258 76.944,7.38258 77.5,7C 96.1139,5.46609 114.114,7.79942 131.5,14C 129.065,14.0748 128.398,14.9081 129.5,16.5 Z"/></g>
<g><path style="opacity:1" fill="#76a548" d="M 121.5,14.5 C 124.221,14.9628 126.888,15.6295 129.5,16.5C 130.29,17.4013 131.29,18.0679 132.5,18.5C 133.802,20.6899 135.469,22.6899 137.5,24.5C 142.215,27.5723 146.882,30.5723 151.5,33.5C 151.245,38.7066 153.579,41.7066 158.5,42.5C 162.096,49.6005 165.263,56.9339 168,64.5C 168.671,65.2524 169.504,65.5858 170.5,65.5C 171.404,66.209 171.737,67.209 171.5,68.5C 172.695,82.1744 172.695,95.841 171.5,109.5C 171.768,111.099 171.434,112.432 170.5,113.5C 168.693,117.833 166.193,121.833 163,125.5C 161.921,128.063 161.421,130.729 161.5,133.5C 160.5,133.5 159.5,133.5 158.5,133.5C 158.5,134.5 158.5,135.5 158.5,136.5C 154.364,137.983 152.03,140.983 151.5,145.5C 150.448,145.351 149.448,145.517 148.5,146C 144.932,150.792 140.265,154.125 134.5,156C 133.418,157.33 132.751,158.83 132.5,160.5C 130.03,161.237 127.696,162.237 125.5,163.5C 121.164,164.634 116.831,164.634 112.5,163.5C 111.5,162.167 110.5,160.833 109.5,159.5C 112.726,158.123 113.059,156.457 110.5,154.5C 109.614,155.325 109.281,156.325 109.5,157.5C 106.45,158.077 104.45,156.91 103.5,154C 102.552,153.517 101.552,153.351 100.5,153.5C 99.5637,152.026 98.2303,151.026 96.5,150.5C 91.8223,145.821 87.489,140.821 83.5,135.5C 83.244,133.088 84.244,131.421 86.5,130.5C 86,130.167 85.5,129.833 85,129.5C 83.4329,130.856 81.5996,131.523 79.5,131.5C 79.3333,91.4986 79.5,51.4986 80,11.5C 94.0031,9.68224 107.836,10.6822 121.5,14.5 Z"/></g>
<g><path style="opacity:1" fill="#842b2a" d="M 76.5,9.5 C 76.5,12.1667 76.5,14.8333 76.5,17.5C 75.5016,52.3294 75.1683,87.3294 75.5,122.5C 73.323,122.414 71.323,121.747 69.5,120.5C 65.4754,117.442 62.1421,113.775 59.5,109.5C 57.9783,108.438 56.3117,107.771 54.5,107.5C 54.5,107.167 54.5,106.833 54.5,106.5C 50.5332,102.524 46.8665,98.1906 43.5,93.5C 41.9783,92.438 40.3117,91.7713 38.5,91.5C 38.5,91.1667 38.5,90.8333 38.5,90.5C 34.5332,86.524 30.8665,82.1906 27.5,77.5C 25.9783,76.438 24.3117,75.7713 22.5,75.5C 19.5256,72.8621 16.5256,70.1954 13.5,67.5C 13.5,67.1667 13.5,66.8333 13.5,66.5C 13.5,47.5 13.5,28.5 13.5,9.5C 34.5,9.5 55.5,9.5 76.5,9.5 Z"/></g>
<g><path style="opacity:1" fill="#733719" d="M 76.5,8.5 C 76.8333,8.5 77.1667,8.5 77.5,8.5C 77.5,48.8333 77.5,89.1667 77.5,129.5C 77.1667,129.5 76.8333,129.5 76.5,129.5C 76.1667,129.5 75.8333,129.5 75.5,129.5C 75.5,129.167 75.5,128.833 75.5,128.5C 76.4985,91.6704 76.8318,54.6704 76.5,17.5C 76.5,14.8333 76.5,12.1667 76.5,9.5C 76.5,9.16667 76.5,8.83333 76.5,8.5 Z"/></g>
<g><path style="opacity:1" fill="#7f9954" d="M 77.5,8.5 C 86.1731,8.33358 94.8397,8.50025 103.5,9C 109.895,9.92617 115.895,11.7595 121.5,14.5C 107.836,10.6822 94.0031,9.68224 80,11.5C 79.5,51.4986 79.3333,91.4986 79.5,131.5C 81.5996,131.523 83.4329,130.856 85,129.5C 85.5,129.833 86,130.167 86.5,130.5C 84.244,131.421 83.244,133.088 83.5,135.5C 82.1514,134.047 80.4847,133.047 78.5,132.5C 78.6716,131.508 78.3382,130.842 77.5,130.5C 77.5,130.167 77.5,129.833 77.5,129.5C 77.5,89.1667 77.5,48.8333 77.5,8.5 Z"/></g>
<g><path style="opacity:1" fill="#83a265" d="M 132.5,18.5 C 136.336,20.5836 140.003,22.917 143.5,25.5C 146.473,27.8062 149.14,30.4728 151.5,33.5C 146.882,30.5723 142.215,27.5723 137.5,24.5C 135.469,22.6899 133.802,20.6899 132.5,18.5 Z"/></g>
<g><path style="opacity:1" fill="#eef9dd" d="M 143.5,25.5 C 144.978,25.238 146.311,25.5713 147.5,26.5C 154.909,33.4078 161.409,41.0744 167,49.5C 167.494,51.1341 167.66,52.8008 167.5,54.5C 164.205,50.6071 161.372,46.2738 159,41.5C 156.715,38.5685 154.215,35.9018 151.5,33.5C 149.14,30.4728 146.473,27.8062 143.5,25.5 Z"/></g>
<g><path style="opacity:1" fill="#7fa35d" d="M 151.5,33.5 C 154.215,35.9018 156.715,38.5685 159,41.5C 161.372,46.2738 164.205,50.6071 167.5,54.5C 167.5,54.8333 167.5,55.1667 167.5,55.5C 168.901,58.7036 169.901,62.0369 170.5,65.5C 169.504,65.5858 168.671,65.2524 168,64.5C 165.263,56.9339 162.096,49.6005 158.5,42.5C 153.579,41.7066 151.245,38.7066 151.5,33.5 Z"/></g>
<g><path style="opacity:1" fill="#e39c4d" d="M 75.5,129.5 C 75.8333,129.5 76.1667,129.5 76.5,129.5C 76.5,161.5 76.5,193.5 76.5,225.5C 75.8826,225.389 75.3826,225.056 75,224.5C 74.8332,198.494 74.3332,172.494 73.5,146.5C 73.1667,159.667 72.8333,172.833 72.5,186C 72.5094,199.556 73.176,212.889 74.5,226C 54.8362,226.5 35.1695,226.667 15.5,226.5C 14.1759,175.204 14.1759,123.871 15.5,72.5C 17.5323,75.4961 20.5323,78.1628 24.5,80.5C 25.0933,82.3817 25.7599,84.2151 26.5,86C 29.1667,87.3333 31.8333,88.6667 34.5,90C 34.1667,90.3333 33.8333,90.6667 33.5,91C 35.4704,93.3157 37.8037,95.1491 40.5,96.5C 41.0933,98.3817 41.7599,100.215 42.5,102C 45.1667,103.333 47.8333,104.667 50.5,106C 50.1667,106.333 49.8333,106.667 49.5,107C 51.4704,109.316 53.8037,111.149 56.5,112.5C 57.7591,117.665 61.0925,120.831 66.5,122C 68.8479,125.477 71.8479,127.977 75.5,129.5 Z"/></g>
<g><path style="opacity:1" fill="#883619" d="M 22.5,75.5 C 24.3117,75.7713 25.9783,76.438 27.5,77.5C 30.8665,82.1906 34.5332,86.524 38.5,90.5C 37.7611,90.631 37.0944,90.4643 36.5,90C 31.9663,84.9676 27.2996,80.1342 22.5,75.5 Z"/></g>
<g><path style="opacity:1" fill="#fef0d9" d="M 12.5,8.5 C 12.5,27.8333 12.5,47.1667 12.5,66.5C 12.5,120.5 12.5,174.5 12.5,228.5C 32.8333,228.5 53.1667,228.5 73.5,228.5C 52.6733,229.497 31.6733,229.831 10.5,229.5C 10.811,177.822 10.4777,126.156 9.5,74.5C 9.47772,72.0351 9.97772,69.7017 11,67.5C 11.1682,47.6624 11.6682,27.9957 12.5,8.5 Z"/></g>
<g><path style="opacity:1" fill="#83a465" d="M 171.5,68.5 C 172.268,69.2625 172.768,70.2625 173,71.5C 175.309,84.4262 174.809,97.0929 171.5,109.5C 172.695,95.841 172.695,82.1744 171.5,68.5 Z"/></g>
<g><path style="opacity:1" fill="#e2995a" d="M 13.5,67.5 C 16.5256,70.1954 19.5256,72.8621 22.5,75.5C 27.2996,80.1342 31.9663,84.9676 36.5,90C 37.0944,90.4643 37.7611,90.631 38.5,90.5C 38.5,90.8333 38.5,91.1667 38.5,91.5C 43.2996,96.1342 47.9663,100.968 52.5,106C 53.0944,106.464 53.7611,106.631 54.5,106.5C 54.5,106.833 54.5,107.167 54.5,107.5C 61.1667,114.833 68.1667,121.833 75.5,128.5C 75.5,128.833 75.5,129.167 75.5,129.5C 71.8479,127.977 68.8479,125.477 66.5,122C 61.0925,120.831 57.7591,117.665 56.5,112.5C 53.8037,111.149 51.4704,109.316 49.5,107C 49.8333,106.667 50.1667,106.333 50.5,106C 47.8333,104.667 45.1667,103.333 42.5,102C 41.7599,100.215 41.0933,98.3817 40.5,96.5C 37.8037,95.1491 35.4704,93.3157 33.5,91C 33.8333,90.6667 34.1667,90.3333 34.5,90C 31.8333,88.6667 29.1667,87.3333 26.5,86C 25.7599,84.2151 25.0933,82.3817 24.5,80.5C 20.5323,78.1628 17.5323,75.4961 15.5,72.5C 14.1759,123.871 14.1759,175.204 15.5,226.5C 14.8826,226.389 14.3826,226.056 14,225.5C 13.5,172.834 13.3333,120.168 13.5,67.5 Z"/></g>
<g><path style="opacity:1" fill="#883619" d="M 38.5,91.5 C 40.3117,91.7713 41.9783,92.438 43.5,93.5C 46.8665,98.1906 50.5332,102.524 54.5,106.5C 53.7611,106.631 53.0944,106.464 52.5,106C 47.9663,100.968 43.2996,96.1342 38.5,91.5 Z"/></g>
<g><path style="opacity:1" fill="#f2fbe6" d="M 167.5,55.5 C 168.239,55.369 168.906,55.5357 169.5,56C 170.396,58.179 171.729,60.0124 173.5,61.5C 173.291,62.086 172.957,62.586 172.5,63C 178.943,85.3672 177.443,107.201 168,128.5C 165.049,130.732 163.382,133.732 163,137.5C 161.439,139.973 159.439,141.973 157,143.5C 156.517,144.448 156.351,145.448 156.5,146.5C 155.127,146.343 153.793,146.51 152.5,147C 151.464,151.205 148.797,153.371 144.5,153.5C 146.833,150.833 149.167,148.167 151.5,145.5C 155.18,141.817 158.514,137.817 161.5,133.5C 165.548,127.396 168.548,120.729 170.5,113.5C 171.434,112.432 171.768,111.099 171.5,109.5C 174.809,97.0929 175.309,84.4262 173,71.5C 172.768,70.2625 172.268,69.2625 171.5,68.5C 171.737,67.209 171.404,66.209 170.5,65.5C 169.901,62.0369 168.901,58.7036 167.5,55.5 Z"/></g>
<g><path style="opacity:1" fill="#87301f" d="M 76.5,17.5 C 76.8318,54.6704 76.4985,91.6704 75.5,128.5C 68.1667,121.833 61.1667,114.833 54.5,107.5C 56.3117,107.771 57.9783,108.438 59.5,109.5C 62.1421,113.775 65.4754,117.442 69.5,120.5C 71.323,121.747 73.323,122.414 75.5,122.5C 75.1683,87.3294 75.5016,52.3294 76.5,17.5 Z"/></g>
<g><path style="opacity:1" fill="#81a25e" d="M 170.5,113.5 C 168.548,120.729 165.548,127.396 161.5,133.5C 161.421,130.729 161.921,128.063 163,125.5C 166.193,121.833 168.693,117.833 170.5,113.5 Z"/></g>
<g><path style="opacity:1" fill="#7da15b" d="M 161.5,133.5 C 158.514,137.817 155.18,141.817 151.5,145.5C 152.03,140.983 154.364,137.983 158.5,136.5C 158.5,135.5 158.5,134.5 158.5,133.5C 159.5,133.5 160.5,133.5 161.5,133.5 Z"/></g>
<g><path style="opacity:1" fill="#86c3b8" d="M 78.5,132.5 C 80.4847,133.047 82.1514,134.047 83.5,135.5C 87.489,140.821 91.8223,145.821 96.5,150.5C 96.7394,152.467 96.4061,154.301 95.5,156C 96.6817,157.678 97.8484,157.512 99,155.5C 101.54,156.207 102.707,157.873 102.5,160.5C 103.552,160.351 104.552,160.517 105.5,161C 106.938,165.384 109.938,167.884 114.5,168.5C 114.842,169.338 115.508,169.672 116.5,169.5C 128.5,181.833 140.5,194.167 152.5,206.5C 153.535,208.205 153.535,209.872 152.5,211.5C 155.328,213.748 158.328,215.748 161.5,217.5C 163.5,219.833 165.5,222.167 167.5,224.5C 167.291,225.086 166.957,225.586 166.5,226C 137.458,226.183 108.458,226.683 79.5,227.5C 78.5148,195.877 78.1815,164.21 78.5,132.5 Z"/></g>
<g><path style="opacity:1" fill="#cea760" d="M 76.5,129.5 C 76.8333,129.5 77.1667,129.5 77.5,129.5C 77.5,129.833 77.5,130.167 77.5,130.5C 78.1595,163.184 77.4928,195.517 75.5,227.5C 75.8333,226.833 76.1667,226.167 76.5,225.5C 76.5,193.5 76.5,161.5 76.5,129.5 Z"/></g>
<g><path style="opacity:1" fill="#a7b792" d="M 77.5,130.5 C 78.3382,130.842 78.6716,131.508 78.5,132.5C 78.1815,164.21 78.5148,195.877 79.5,227.5C 79.5,227.833 79.5,228.167 79.5,228.5C 78.1667,228.5 76.8333,228.5 75.5,228.5C 75.5,228.167 75.5,227.833 75.5,227.5C 77.4928,195.517 78.1595,163.184 77.5,130.5 Z"/></g>
<g><path style="opacity:1" fill="#e09d56" d="M 76.5,225.5 C 76.1667,226.167 75.8333,226.833 75.5,227.5C 55.3264,227.83 35.3264,227.497 15.5,226.5C 35.1695,226.667 54.8362,226.5 74.5,226C 73.176,212.889 72.5094,199.556 72.5,186C 72.8333,172.833 73.1667,159.667 73.5,146.5C 74.3332,172.494 74.8332,198.494 75,224.5C 75.3826,225.056 75.8826,225.389 76.5,225.5 Z"/></g>
<g><path style="opacity:1" fill="#88c3a7" d="M 96.5,150.5 C 98.2303,151.026 99.5637,152.026 100.5,153.5C 104.96,158.627 109.627,163.294 114.5,167.5C 114.5,167.833 114.5,168.167 114.5,168.5C 109.938,167.884 106.938,165.384 105.5,161C 104.552,160.517 103.552,160.351 102.5,160.5C 102.707,157.873 101.54,156.207 99,155.5C 97.8484,157.512 96.6817,157.678 95.5,156C 96.4061,154.301 96.7394,152.467 96.5,150.5 Z"/></g>
<g><path style="opacity:1" fill="#7ea05d" d="M 151.5,145.5 C 149.167,148.167 146.833,150.833 144.5,153.5C 143.833,153.5 143.5,153.833 143.5,154.5C 139.833,156.5 136.167,158.5 132.5,160.5C 132.751,158.83 133.418,157.33 134.5,156C 140.265,154.125 144.932,150.792 148.5,146C 149.448,145.517 150.448,145.351 151.5,145.5 Z"/></g>
<g><path style="opacity:1" fill="#75a55b" d="M 100.5,153.5 C 101.552,153.351 102.552,153.517 103.5,154C 104.45,156.91 106.45,158.077 109.5,157.5C 109.281,156.325 109.614,155.325 110.5,154.5C 113.059,156.457 112.726,158.123 109.5,159.5C 110.5,160.833 111.5,162.167 112.5,163.5C 116.831,164.634 121.164,164.634 125.5,163.5C 122.199,165.584 118.532,166.918 114.5,167.5C 109.627,163.294 104.96,158.627 100.5,153.5 Z"/></g>
<g><path style="opacity:1" fill="#eaf5df" d="M 143.5,154.5 C 143.67,155.822 143.337,156.989 142.5,158C 139.228,159.608 136.228,161.608 133.5,164C 127.333,165.478 121.666,167.311 116.5,169.5C 115.508,169.672 114.842,169.338 114.5,168.5C 114.5,168.167 114.5,167.833 114.5,167.5C 118.532,166.918 122.199,165.584 125.5,163.5C 127.696,162.237 130.03,161.237 132.5,160.5C 136.167,158.5 139.833,156.5 143.5,154.5 Z"/></g>
<g><path style="opacity:1" fill="#97c3bc" d="M 152.5,206.5 C 159.812,213.146 166.812,220.146 173.5,227.5C 142.174,228.5 110.84,228.833 79.5,228.5C 79.5,228.167 79.5,227.833 79.5,227.5C 108.458,226.683 137.458,226.183 166.5,226C 166.957,225.586 167.291,225.086 167.5,224.5C 165.5,222.167 163.5,219.833 161.5,217.5C 158.328,215.748 155.328,213.748 152.5,211.5C 153.535,209.872 153.535,208.205 152.5,206.5 Z"/></g>
<g><path style="opacity:1" fill="#d8ad7d" d="M 12.5,66.5 C 12.8333,66.5 13.1667,66.5 13.5,66.5C 13.5,66.8333 13.5,67.1667 13.5,67.5C 13.3333,120.168 13.5,172.834 14,225.5C 14.3826,226.056 14.8826,226.389 15.5,226.5C 35.3264,227.497 55.3264,227.83 75.5,227.5C 75.5,227.833 75.5,228.167 75.5,228.5C 74.8333,228.5 74.1667,228.5 73.5,228.5C 53.1667,228.5 32.8333,228.5 12.5,228.5C 12.5,174.5 12.5,120.5 12.5,66.5 Z"/></g>
</svg>
